<?xml version="1.0" encoding="UTF-8"?>
<svg version="1.1" xmlns="http://www.w3.org/2000/svg" width="1563" height="1563">
<path d="M0 0 C0.90886963 0.00310181 1.81773926 0.00620361 2.75415039 0.00939941 C92.04447319 0.36038945 186.06456055 10.72302608 281.625 51.25 C282.58196777 51.67958008 283.53893555 52.10916016 284.52490234 52.55175781 C296.67759208 58.05894217 308.33660313 64.13408269 319.625 71.25 C320.3581543 71.71132324 321.09130859 72.17264648 321.84667969 72.64794922 C336.83830371 82.16843648 350.73225911 93.02622208 363.625 105.25 C364.12064453 105.71841309 364.61628906 106.18682617 365.12695312 106.66943359 C373.46502264 114.60478347 380.80306506 122.98387083 387.625 132.25 C388.39457031 133.28640625 389.16414063 134.3228125 389.95703125 135.390625 C408.53667738 161.29149772 419.51533611 190.91498619 424.625 222.25 C424.80289062 223.33522949 424.80289062 223.33522949 424.984375 224.44238281 C426.68160472 235.44911962 426.83260655 246.51090199 426.875 257.625 C426.87902832 258.34128571 426.88305664 259.05757141 426.88720703 259.79556274 C426.91098242 266.80959822 426.83832634 273.70701867 425.75 280.65625 C425.60788086 281.59549316 425.46576172 282.53473633 425.31933594 283.50244141 C424.875 286.125 424.875 286.125 424.28222656 288.49365234 C423.81981145 291.1487915 423.78732025 292.67309558 424.625 295.25 C427.67109038 298.79962848 431.19689265 301.68663938 434.78253174 304.66320801 C438.05277538 307.47964535 441.0704956 310.54766863 444.11328125 313.60546875 C444.75206207 314.2434137 445.3908429 314.88135864 446.04898071 315.53863525 C447.35498715 316.84372334 448.65969851 318.15010865 449.96313477 319.45776367 C451.94889676 321.44892777 453.9400074 323.43463221 455.93164062 325.41992188 C462.04245949 331.5275475 468.0532836 337.63947148 473.625 344.25 C475.07945517 345.85768373 476.53720895 347.46239715 478 349.0625 C481.82414478 353.3044085 485.47389455 357.65551097 489.0625 362.09765625 C490.95520913 364.43859881 492.87750175 366.75249212 494.8125 369.05859375 C502.9588642 378.79452058 510.63489494 388.79579669 518.06445312 399.08837891 C519.44814118 401.00502066 520.83972544 402.91555053 522.234375 404.82421875 C568.37295453 468.28457657 603.86064472 540.28709261 653.43359375 758.14141846 C653.61242598 760.11148132 653.79814072 762.08091605 653.984375 764.05029297 C662.03719456 852.45155774 651.24657059 942.96147731 588.91601562 1124.51220703 C587.64424599 1127.20918599 586.39085676 1129.9140745 585.140625 1132.62109375 C569.15472629 1167.01480415 549.36772526 1200.34328107 527.17675781 1231.09667969 C525.56566791 1233.33233307 523.96583423 1235.5757479 522.3671875 1237.8203125 C515.693427 1247.16259069 508.82851665 1256.30994656 501.625 1265.25 C500.50544922 1266.64412109 500.50544922 1266.64412109 499.36328125 1268.06640625 C494.26885778 1274.34983341 489.02406764 1280.49932362 483.7421875 1286.625 C481.65061183 1289.05138534 479.57361649 1291.48913972 477.5078125 1293.9375 C472.4985797 1299.86060074 467.47609155 1305.62959729 461.85546875 1310.9921875 C459.95003747 1312.92097783 458.18936074 1314.88852273 456.421875 1316.94140625 C452.37630465 1321.60259513 448.06128492 1325.96086082 443.6875 1330.3125 C442.92759766 1331.07626953 442.16769531 1331.84003906 441.38476562 1332.62695312 C437.20622832 1336.79835373 432.94171049 1340.80042027 428.4675293 1344.65258789 C425.74636128 1347.01175078 423.1284693 1349.47625448 420.5 1351.9375 C410.44645266 1361.2675581 400.01555837 1370.06681138 389.1796875 1378.47265625 C386.76530818 1380.34836131 384.377906 1382.25224137 382.0078125 1384.18359375 C373.55347941 1391.06706591 364.85590392 1397.46329956 355.89355469 1403.66845703 C353.5649239 1405.29188258 351.25377115 1406.93787984 348.9453125 1408.58984375 C329.60517169 1422.38190376 309.40436832 1434.7536361 288.625 1446.25 C287.63306641 1446.80010742 286.64113281 1447.35021484 285.61914062 1447.91699219 C250.94093909 1467.07102687 215.02713679 1483.20550394 177.625 1496.25 C176.97585632 1496.47753967 176.32671265 1496.70507935 175.65789795 1496.93951416 C101.7790921 1522.78545389 24.1917469 1535.44562529 -53.97705078 1535.43530273 C-57.14117195 1535.43522188 -60.30514705 1535.44211283 -63.46923828 1535.45581055 C-90.61321019 1535.57126986 -117.46457583 1534.39875949 -144.4375 1531.125 C-145.73805328 1530.96827316 -145.73805328 1530.96827316 -147.06488037 1530.80838013 C-238.75537085 1519.61417401 -327.81676015 1490.58882905 -502.375 1382.25 C-503.01147461 1381.73969238 -503.64794922 1381.22938477 -504.30371094 1380.70361328 C-517.25070234 1370.31253111 -529.9155868 1359.66862277 -542.046875 1348.33203125 C-543.85331535 1346.64423123 -545.67613016 1344.98317537 -547.52661133 1343.34350586 C-554.20600672 1337.42314802 -560.55633576 1331.22256175 -566.85327148 1324.90209961 C-568.56707233 1323.1829133 -570.28619082 1321.46917417 -572.00585938 1319.75585938 C-577.67783819 1314.08730975 -583.17162136 1308.35674924 -588.375 1302.25 C-589.99467817 1300.47429779 -591.61911718 1298.70291693 -593.25 1296.9375 C-597.3267983 1292.46775728 -601.18977437 1287.8741437 -604.984375 1283.1640625 C-606.65631482 1281.12604436 -608.34019291 1279.12781713 -610.078125 1277.1484375 C-618.74996362 1267.26616394 -626.60329352 1256.84945931 -634.375 1246.25 C-634.95991211 1245.4544873 -635.54482422 1244.65897461 -636.14746094 1243.83935547 C-643.49949702 1233.82163226 -650.62949596 1223.68653707 -657.375 1213.25 C-657.83197266 1212.54327148 -658.28894531 1211.83654297 -658.75976562 1211.10839844 C-707.8739205 1134.84521479 -742.91529549 1050.82576665 -771.61328125 883.2265625 C-771.67653091 882.55492065 -771.73978058 881.88327881 -771.8049469 881.19128418 C-772.97461742 868.16060333 -773.54017977 855.17180462 -773.578125 842.08984375 C-773.58514824 840.58214286 -773.59223505 839.07444226 -773.59938049 837.56674194 C-773.61878167 832.77365694 -773.62381488 827.98062031 -773.625 823.1875 C-773.62544186 822.37048489 -773.62588371 821.55346977 -773.62633896 820.71169662 C-773.63341222 795.77041553 -773.28518903 771.04893827 -770.375 746.25 C-770.19609144 744.67531541 -770.01738642 743.10060768 -769.83886719 741.52587891 C-761.21142523 666.43710118 -741.43322903 592.82126802 -707.375 519.25 C-706.92833984 518.29109863 -706.48167969 517.33219727 -706.02148438 516.34423828 C-691.21440117 484.64125126 -673.83829725 454.32337625 -654.375 425.25 C-653.85905273 424.47285645 -653.34310547 423.69571289 -652.81152344 422.89501953 C-644.73173527 410.74517006 -636.08696246 399.09535906 -627.15673828 387.55908203 C-625.61201762 385.55716808 -624.0806556 383.54649678 -622.55859375 381.52734375 C-617.6970435 375.09341404 -612.60762914 368.90356976 -607.30761719 362.82836914 C-603.43326355 358.38216711 -601.17048777 355.68826146 -600.80078125 349.75 C-600.72682129 348.58210938 -600.65286133 347.41421875 -600.57666016 346.2109375 C-600.27539762 340.29364535 -600.02067989 334.37506998 -599.77905273 328.45507812 C-598.63324331 300.62761639 -596.1622967 272.95514248 -593.375 245.25 C-588.71537461 245.826906 -585.19059866 247.90097942 -581.1875 250.1875 C-565.90197025 258.56178423 -549.2319496 264.22703321 -532.625 269.375 C-531.20646729 269.81803467 -531.20646729 269.81803467 -529.75927734 270.27001953 C-523.18150627 272.28237001 -523.18150627 272.28237001 -516.375 272.25 C-514.18708151 270.89189648 -514.18708151 270.89189648 -512.3125 268.875 C-507.23360032 264.0500453 -501.77953418 259.8338896 -496.19335938 255.62255859 C-494.30658932 254.19836132 -492.42661132 252.76549583 -490.546875 251.33203125 C-481.34799886 244.3439316 -471.95241589 237.70714117 -462.375 231.25 C-461.32771729 230.5389209 -461.32771729 230.5389209 -460.25927734 229.81347656 C-443.81835453 218.6540744 -427.04184565 207.99908813 -409.59863281 198.46923828 C-407.12924962 197.11525281 -404.67053302 195.74277398 -402.2109375 194.37109375 C-364.17109158 173.29932456 -324.53944731 156.65322226 -283.42648315 142.5831604 C-273.61635501 139.22219585 -264.04029534 135.51778504 -254.50662231 131.44241333 C-228.24147052 120.27291551 -201.15594562 111.78207541 -173.375 105.25 C-172.27091797 104.98880371 -171.16683594 104.72760742 -170.02929688 104.45849609 C-125.36559366 94.03911058 -80.05088377 90.02386559 -34.25 90 C-33.24482582 89.99911629 -33.24482582 89.99911629 -32.21934509 89.99821472 C-9.55235705 89.98419471 12.93067282 90.65783589 35.48504639 93.02539062 C37.58864509 93.24618419 39.69289384 93.45956163 41.79736328 93.671875 C51.43598578 94.65858364 61.03365467 95.88051598 70.625 97.25 C71.40411743 97.36087952 72.18323486 97.47175903 72.98596191 97.58599854 C111.65796467 103.13198343 150.29413305 110.7712042 187.8046875 121.78198242 C189.6345811 122.33300324 189.6345811 122.33300324 191.625 122.25 C141.96616725 93.39534912 89.24318511 72.63394718 34.625 55.25 C33.94236084 55.03255127 33.25972168 54.81510254 32.55639648 54.59106445 C-14.3932075 39.67580887 -62.36767306 27.4608821 -110.7277832 18.11669922 C-112.08907097 17.84912308 -112.08907097 17.84912308 -113.4778595 17.57614136 C-115.18376458 17.24117955 -116.89108007 16.91329947 -118.59989929 16.59353638 C-120.53887645 16.21053851 -122.4600456 15.73915176 -124.375 15.25 C-124.705 14.59 -125.035 13.93 -125.375 13.25 C-108.76070205 10.45491948 -92.12471691 8.09129255 -75.39941406 6.06738281 C-71.74461301 5.62434699 -68.09104391 5.1720239 -64.4375 4.71875 C-42.94564117 2.07572302 -21.66991561 -0.13476568 0 0 Z " fill="#000000" transform="translate(840.375,12.75)"/>
<path d="M0 0 C5.25739529 4.39485388 10.16979934 9.01703956 15 13.875 C15.67289063 14.54402344 16.34578125 15.21304687 17.0390625 15.90234375 C21.00145602 19.87238667 24.77884453 23.94549893 28.42041016 28.2121582 C30.00017294 30.00019574 31.65439108 31.66056808 33.375 33.3125 C37.11984761 36.99062426 40.33508145 41.0344287 43.62109375 45.12109375 C45.95377216 47.94405597 48.38247205 50.63036612 50.875 53.3125 C56.03720624 58.9418384 60.75013256 64.85510326 65.39404297 70.90966797 C67.15169976 73.19745414 68.92175133 75.47539035 70.69140625 77.75390625 C84.40487191 95.49225285 97.29363412 113.68584017 108.76611328 132.95605469 C110.33444962 135.55401904 111.96644995 138.10803941 113.60229492 140.66381836 C149.35141348 196.75034147 175.78799249 260.58175806 192 325 C192.30260742 326.19705566 192.60521484 327.39411133 192.91699219 328.62744141 C201.35555037 362.23800858 207.43108829 396.06862507 210.57348633 430.58740234 C210.84297954 433.50282521 211.16911446 436.40317373 211.54174805 439.30712891 C213.76060516 457.56723966 213.26313511 475.98585886 213.19561768 494.34655762 C213.18480108 498.04876056 213.18514965 501.75092615 213.18575573 505.45314217 C213.18548061 509.08081051 213.17994575 512.70845613 213.17275429 516.33611679 C213.1696297 518.03972071 213.16761525 519.74332713 213.16686058 521.44693375 C213.15282425 536.55496329 212.77422847 551.68877554 211.08984375 566.71484375 C211.00224289 567.52267303 210.91464203 568.33050232 210.8243866 569.16281128 C210.5380083 571.75552429 210.23986829 574.34660528 209.9375 576.9375 C209.77951935 578.30205826 209.77951935 578.30205826 209.61834717 579.69418335 C201.0844634 652.39706339 180.86292091 723.62126797 150 790 C149.1661377 791.7953418 149.1661377 791.7953418 148.31542969 793.62695312 C141.0290128 809.25236985 133.22545182 824.4909843 124.52294922 839.38476562 C123.04110937 841.92940629 121.58158967 844.48549878 120.12890625 847.046875 C101.6572163 879.51778519 79.89028232 910.52622173 55.61328125 938.91796875 C53.20918687 941.73635029 50.88232006 944.61171953 48.5625 947.5 C44.69609833 952.2549105 40.61471132 956.76661645 36.42407227 961.234375 C33.81373809 964.01873145 31.26549208 966.83843992 28.77563477 969.73144531 C25.19993462 973.82520634 21.44614236 977.69886647 17.59765625 981.53515625 C16.91626083 982.21750839 16.23486542 982.89986053 15.53282166 983.60289001 C14.10294259 985.03344437 12.67182089 986.46275767 11.23950195 987.89086914 C9.06802289 990.05699074 6.90193675 992.22840174 4.73632812 994.40039062 C3.33625798 995.79979987 1.93587762 997.19889884 0.53515625 998.59765625 C-0.10155502 999.23639175 -0.7382663 999.87512726 -1.39427185 1000.53321838 C-5.21814702 1004.33757269 -9.1551172 1007.95816238 -13.24139404 1011.47950745 C-15.64685906 1013.55927502 -17.97688859 1015.71737453 -20.3125 1017.875 C-25.71470141 1022.79618347 -31.31229898 1027.41501653 -37 1032 C-38.23005016 1033.00934094 -39.4591621 1034.01982598 -40.6875 1035.03125 C-108.37062227 1090.64605923 -186.86583159 1132.38664575 -284.48291016 1162.93066406 C-287.44566834 1163.83146101 -290.40127074 1164.7513728 -293.35546875 1165.6796875 C-310.89749556 1171.07286152 -329.00861839 1174.47862567 -347 1178 C-347.73923706 1178.14499939 -348.47847412 1178.28999878 -349.2401123 1178.43939209 C-368.063185 1182.10991784 -386.9366574 1184.73259328 -406 1186.8125 C-407.44076904 1186.97061661 -407.44076904 1186.97061661 -408.91064453 1187.13192749 C-431.22774257 1189.55148149 -453.36674323 1190.2684638 -475.8125 1190.3125 C-476.80633886 1190.31488867 -476.80633886 1190.31488867 -477.82025528 1190.31732559 C-502.61888598 1190.3676926 -527.09819797 1188.99556438 -551.74963379 1186.2467041 C-555.02612029 1185.88750805 -558.3057677 1185.56601171 -561.5859375 1185.2421875 C-584.39112697 1182.90802104 -606.93571479 1178.71538482 -629.2734375 1173.61621094 C-632.00160146 1172.99963807 -634.73407924 1172.40729005 -637.46875 1171.8203125 C-670.62498773 1164.6330526 -703.57431587 1153.78041139 -735 1141 C-735.96389648 1140.61054199 -736.92779297 1140.22108398 -737.92089844 1139.81982422 C-755.64363787 1132.61525451 -772.88918111 1124.53507645 -790 1116 C-791.08168457 1115.46117187 -792.16336914 1114.92234375 -793.27783203 1114.3671875 C-825.87595405 1098.02536001 -856.53732846 1078.43831591 -886 1057 C-886.65436035 1056.52433594 -887.3087207 1056.04867188 -887.98291016 1055.55859375 C-897.99467023 1048.24540159 -907.60270955 1040.49975051 -917.12109375 1032.55859375 C-919.66336134 1030.44972729 -922.2390331 1028.38310555 -924.8125 1026.3125 C-929.71184423 1022.31409901 -934.35499121 1018.08192427 -938.98046875 1013.7734375 C-941.14834103 1011.75933433 -943.3674909 1009.81931982 -945.61279297 1007.89208984 C-950.33541383 1003.7648133 -954.77813346 999.38370529 -959.21484375 994.953125 C-960.0700209 994.10127625 -960.92519806 993.24942749 -961.80628967 992.37176514 C-963.60516002 990.57793088 -965.40270126 988.7827629 -967.19897461 986.98632812 C-969.92085032 984.26663632 -972.65062464 981.55504697 -975.38085938 978.84375 C-977.13851157 977.08903309 -978.89568855 975.33384 -980.65234375 973.578125 C-981.8574485 972.38379852 -981.8574485 972.38379852 -983.0868988 971.16534424 C-988.0299638 966.20263903 -992.55379433 961.03518169 -996.92042542 955.55780029 C-999.03426501 952.9578553 -1001.23981731 950.47317089 -1003.5 948 C-1008.20373507 942.82426383 -1012.63078302 937.45971577 -1017 932 C-1017.40943848 931.49017578 -1017.81887695 930.98035156 -1018.24072266 930.45507812 C-1021.53975901 926.3385257 -1024.78397299 922.18167207 -1028 918 C-1028.49532227 917.35724121 -1028.99064453 916.71448242 -1029.50097656 916.05224609 C-1046.48539305 893.8646671 -1062.12850601 870.25246422 -1076 846 C-1076.52932129 845.08508789 -1077.05864258 844.17017578 -1077.60400391 843.22753906 C-1098.15161232 807.64322038 -1115.05548193 770.64711763 -1129 732 C-1129.35478424 731.01749268 -1129.35478424 731.01749268 -1129.71673584 730.01513672 C-1135.68837162 713.43574695 -1141.14866662 696.87782469 -1145.29833984 679.73364258 C-1146.10731915 676.58188849 -1147.02270754 673.46915896 -1147.94140625 670.34765625 C-1150.1597158 662.65626584 -1151.87213729 654.89364814 -1153.5 647.0625 C-1153.65029663 646.34688904 -1153.80059326 645.63127808 -1153.95544434 644.89398193 C-1156.4243623 633.13021794 -1158.66932481 621.34271688 -1160.59130859 609.47607422 C-1160.97223674 607.16820487 -1161.38131331 604.86753187 -1161.80078125 602.56640625 C-1164.35761699 588.13589058 -1165.44643774 573.51755115 -1166.60302734 558.9206543 C-1166.8898539 555.30291307 -1167.20406269 551.68827629 -1167.52587891 548.07348633 C-1168.88935862 532.29665118 -1169.32358274 516.64385354 -1169.25 500.8125 C-1169.24689819 499.61355103 -1169.24379639 498.41460205 -1169.24060059 497.17932129 C-1169.14891046 466.85004194 -1166.79147199 437.07083856 -1163 407 C-1162.87304749 405.9856488 -1162.87304749 405.9856488 -1162.74353027 404.95080566 C-1160.90521382 390.28963163 -1158.87920809 375.74881015 -1155.54296875 361.34716797 C-1154.95327646 358.79802151 -1154.38193774 356.24515081 -1153.8125 353.69140625 C-1152.77258544 349.04459559 -1151.70975689 344.40342431 -1150.63671875 339.76416016 C-1150.01065635 337.04626195 -1149.39561835 334.32603054 -1148.78125 331.60546875 C-1146.44778487 321.39972291 -1143.70193216 311.4411966 -1140.4453125 301.4921875 C-1139.13611124 297.48307703 -1137.99744352 293.44073988 -1136.875 289.375 C-1122.67855461 239.78442795 -1099.66957045 190.97725629 -1073 147 C-1072.4529541 146.09781738 -1071.9059082 145.19563477 -1071.34228516 144.26611328 C-1057.61830212 121.75573556 -1042.93649888 100.01546617 -1026.71728516 79.22607422 C-1024.48004959 76.32600116 -1022.31093047 73.37769065 -1020.15307617 70.41821289 C-1019.77256104 69.95020264 -1019.3920459 69.48219238 -1019 69 C-1018.67 69 -1018.34 69 -1018 69 C-1017.31480368 76.75583921 -1016.93980072 84.48674424 -1016.72558594 92.26757812 C-1015.96995384 118.42858843 -1013.19694008 144.29327239 -1010 170.25 C-1009.87452789 171.28056519 -1009.74905579 172.31113037 -1009.61978149 173.3729248 C-1008.3613202 183.64370857 -1007.02296449 193.78278322 -1004.70117188 203.87353516 C-1003.74686922 208.1286883 -1003.03755625 212.41322824 -1002.31445312 216.71264648 C-999.81365767 231.55408871 -996.47697364 246.1005339 -992.81689453 260.69384766 C-991.84499957 264.62732093 -990.9380799 268.57358577 -990.03564453 272.5234375 C-987.3486068 284.21040653 -983.81723352 295.52977439 -980.03466797 306.90234375 C-979.36461505 308.92127198 -978.69857869 310.94153781 -978.03662109 312.96313477 C-977.39919835 314.90943083 -976.75273222 316.85279413 -976.09619141 318.79272461 C-975.8079248 319.67452393 -975.5196582 320.55632324 -975.22265625 321.46484375 C-974.96234619 322.244646 -974.70203613 323.02444824 -974.43383789 323.82788086 C-973.45165612 328.74542232 -976.30031804 332.80889813 -978.5 337.0625 C-984.80616795 349.33293523 -984.4279614 363.0588659 -980.31494141 376.18652344 C-979.49264399 378.69935128 -978.63059154 381.19452405 -977.75 383.6875 C-977.33705688 384.88209839 -977.33705688 384.88209839 -976.91577148 386.10083008 C-974.69010285 392.11620141 -971.73350936 398.98831227 -965.84912109 402.15893555 C-963.42081747 403.11629274 -963.42081747 403.11629274 -960 404 C-960 406.97 -960 409.94 -960 413 C-962.06271639 412.6889315 -964.12516466 412.37608484 -966.1875 412.0625 C-967.91033203 411.80146484 -967.91033203 411.80146484 -969.66796875 411.53515625 C-971.60370647 411.22425816 -973.53579155 410.88036552 -975.44921875 410.453125 C-987.25606065 408.35573808 -998.04184587 409.8766494 -1008.375 416 C-1009.24125 416.66 -1010.1075 417.32 -1011 418 C-1011.79664063 418.58394531 -1012.59328125 419.16789062 -1013.4140625 419.76953125 C-1024.5035119 429.33460014 -1028.68756096 445.97083474 -1030 460 C-1030.14820697 462.92234399 -1030.18634881 465.83984193 -1030.203125 468.765625 C-1030.21013931 469.58851013 -1030.21715363 470.41139526 -1030.22438049 471.25921631 C-1030.24187201 473.92286676 -1030.24823971 476.58629409 -1030.25 479.25 C-1030.25067474 480.16394531 -1030.25134949 481.07789063 -1030.25204468 482.01953125 C-1030.22458331 505.50798252 -1027.65036072 528.00599093 -1022.6484375 550.97070312 C-1022.00425192 553.98013636 -1021.4020711 556.99505571 -1020.8125 560.015625 C-1018.13943794 573.58774645 -1014.73867119 586.85100071 -1010.84228516 600.12207031 C-1010.0817512 602.72067156 -1009.34035497 605.3237458 -1008.60546875 607.9296875 C-1000.22307866 637.24676226 -990.21709263 668.62022202 -973 694 C-972.53851562 694.70640625 -972.07703125 695.4128125 -971.6015625 696.140625 C-961.42102145 709.83808023 -939.2984185 717.15266721 -924.1875 723.375 C-923.04313477 723.860896 -921.89876953 724.34679199 -920.71972656 724.84741211 C-914.7449973 727.32446632 -909.01399253 729.32069527 -902.6796875 730.66015625 C-886.0903907 734.53621283 -886.0903907 734.53621283 -881.86199951 740.64373779 C-877.23650425 749.07287815 -875.09373811 758.7369483 -872.81018066 768.00550842 C-870.9484755 775.52219557 -868.3606677 782.57287011 -865.4375 789.75 C-864.98632812 790.87784912 -864.53515625 792.00569824 -864.0703125 793.16772461 C-839.14210441 854.81026223 -800.55866753 911.54527632 -748 953 C-746.88636345 953.91465243 -745.77449251 954.83145733 -744.6640625 955.75 C-735.55880615 963.23522701 -726.04074405 969.95349057 -716.24121094 976.49658203 C-714.21469336 977.85598238 -712.20248258 979.23336132 -710.1953125 980.62109375 C-700.723681 987.12921655 -690.85060271 992.84964191 -680.81103516 998.43359375 C-678.95301182 999.46894877 -677.09843633 1000.51051822 -675.24755859 1001.55859375 C-636.31157957 1023.59964205 -594.52554925 1039.43455466 -552 1053 C-550.84661133 1053.36883301 -549.69322266 1053.73766602 -548.50488281 1054.11767578 C-536.93564753 1057.79137806 -525.31619871 1061.02333534 -513.51953125 1063.87890625 C-509.51800842 1064.85429319 -505.57559114 1065.96047647 -501.625 1067.125 C-489.46434681 1070.65690163 -478.65902339 1073.42095638 -466.13671875 1070.3125 C-465.02673775 1070.04600395 -465.02673775 1070.04600395 -463.89433289 1069.77412415 C-461.48952178 1069.19261218 -459.08835057 1068.59763981 -456.6875 1068 C-455.85655823 1067.79514984 -455.02561646 1067.59029968 -454.16949463 1067.37924194 C-440.90698379 1064.10267216 -427.81692694 1060.47251132 -414.82519531 1056.23730469 C-411.15657493 1055.04443439 -407.47633551 1053.88991704 -403.79542542 1052.73562622 C-368.89213044 1041.77302912 -334.84453533 1029.19083087 -302 1013 C-300.89188965 1012.45553223 -299.7837793 1011.91106445 -298.64208984 1011.35009766 C-254.81059125 989.64011518 -213.27667251 961.85916968 -178.79272461 926.99853516 C-177.04408776 925.2313929 -175.2873301 923.47263385 -173.52929688 921.71484375 C-167.81357321 915.98172093 -162.18358465 910.22657521 -157 904 C-156.51877686 903.42556152 -156.03755371 902.85112305 -155.54174805 902.25927734 C-120.30910425 859.73442168 -83.23373538 799.9405669 -75.2890625 744.0546875 C-74.74413235 741.49348724 -74.42736937 740.35916864 -72.40893555 738.6628418 C-70.3090351 737.56803958 -68.24262928 736.75888669 -66 736 C-65.3095459 735.74460449 -64.6190918 735.48920898 -63.90771484 735.22607422 C-61.67938322 734.42395716 -59.43665256 733.67911122 -57.1875 732.9375 C-6.01865919 715.56298117 -6.01865919 715.56298117 28 676 C35.55391733 660.50293678 41.45004587 644.3015602 47 628 C47.34272949 626.99775391 47.68545898 625.99550781 48.03857422 624.96289062 C63.87288591 578.24068034 75.15557057 527.77742928 75.3125 478.3125 C75.31511841 477.51829651 75.31773682 476.72409302 75.32043457 475.90582275 C75.32458134 464.15714655 74.7641595 453.22735463 71 442 C70.69964844 441.03320312 70.39929687 440.06640625 70.08984375 439.0703125 C66.24973622 428.13182439 58.53442268 418.14471805 48 413 C34.14039495 407.06016926 19.20301599 410.1593968 5 413 C5 406.73 5 400.46 5 394 C7.97 394 10.94 394 14 394 C20.52773396 390.25457887 22.15890842 385.99334009 24.17578125 378.90234375 C26.44079536 368.17841438 27.38771386 357.7709819 27.4375 346.8125 C27.47037109 345.52408203 27.50324219 344.23566406 27.53710938 342.90820312 C27.58241554 334.83958617 26.69226406 328.7055018 22 322 C21.41855225 321.56212158 20.83710449 321.12424316 20.23803711 320.6730957 C19 319 19 319 19.42382812 315.85742188 C19.77598723 314.55648171 20.1465734 313.2604486 20.53125 311.96875 C20.92945576 310.51591794 21.32654844 309.06278045 21.72265625 307.609375 C21.93486816 306.85140625 22.14708008 306.0934375 22.36572266 305.3125 C23.39748001 301.55083499 24.30687438 297.76093796 25.21875 293.96875 C25.40416351 293.2040892 25.58957703 292.43942841 25.78060913 291.65159607 C29.84438436 274.85997384 33.71852526 258.14250946 36 241 C36.14663086 239.96939453 36.29326172 238.93878906 36.44433594 237.87695312 C40.57118788 208.18136903 41.98842793 175.51935896 36 146 C35.82307617 145.10780762 35.64615234 144.21561523 35.46386719 143.29638672 C30.82094549 120.55890059 22.81333711 99.09283764 8 81 C7.48824219 80.33613281 6.97648437 79.67226563 6.44921875 78.98828125 C-0.14991719 70.71612493 -8.98491522 65.28443963 -18 60 C-17.72325439 59.19071045 -17.44650879 58.3814209 -17.16137695 57.54760742 C-12.12900498 42.78144458 -7.17492903 28.07014345 -3.47167969 12.90234375 C-2.3997752 8.57921756 -1.18242001 4.29388297 0 0 Z " fill="#FDB200" transform="translate(1259,335)"/>
<path d="M0 0 C-1.32982565 8.0922166 -3.19681628 15.95549668 -5.3125 23.875 C-8.38206974 35.54681698 -11.26611058 47.24564341 -14 59 C-14.5507262 61.36329408 -15.10151127 63.72657444 -15.65234375 66.08984375 C-16.08969849 67.96663818 -16.08969849 67.96663818 -16.53588867 69.88134766 C-16.83342041 71.15800293 -17.13095215 72.4346582 -17.4375 73.75 C-17.88283081 75.66111572 -17.88283081 75.66111572 -18.3371582 77.61083984 C-29.73450189 126.46900379 -29.73450189 126.46900379 -32 131 C-30.82953125 131.35707031 -29.6590625 131.71414063 -28.453125 132.08203125 C-22.08928835 134.20784983 -16.01516696 136.98552153 -9.89910889 139.72506714 C-6.17371346 141.39340652 -2.44210517 143.04774504 1.2890625 144.703125 C2.06869354 145.0493541 2.84832458 145.39558319 3.65158081 145.75230408 C12.94946353 149.87531318 22.28632987 153.90794211 31.625 157.9375 C32.86328552 158.47206314 32.86328552 158.47206314 34.12658691 159.01742554 C38.7503118 161.01335079 43.3747797 163.00754268 48 165 C46.71104283 162.18648214 45.33731495 160.0674293 43.20703125 157.828125 C42.66296631 157.250625 42.11890137 156.673125 41.55834961 156.078125 C40.98221924 155.47484375 40.40608887 154.8715625 39.8125 154.25 C38.62163003 152.98509554 37.43151821 151.71947686 36.2421875 150.453125 C35.39092285 149.54916992 35.39092285 149.54916992 34.52246094 148.62695312 C31.59130107 145.4946168 28.78803865 142.25941839 26 139 C24.98315167 137.81373457 23.96621588 136.62754411 22.94921875 135.44140625 C21.29748237 133.51474574 19.64640318 131.58754798 17.99780273 129.65820312 C15.57154669 126.76295923 15.57154669 126.76295923 13 124 C12.90399864 122.393108 12.87812111 120.78198231 12.87974548 119.17222595 C12.87768349 117.6051313 12.87768349 117.6051313 12.87557983 116.00637817 C12.87917511 114.85048187 12.88277039 113.69458557 12.88647461 112.50366211 C12.88632858 111.29407333 12.88618256 110.08448456 12.8860321 108.83824158 C12.88661107 105.51193649 12.89164027 102.18569281 12.89860606 98.8593986 C12.90484022 95.38670071 12.90544345 91.91400207 12.90663147 88.44129944 C12.9097446 81.86103807 12.91795775 75.28079324 12.92798096 68.70053917 C12.93914266 61.21093888 12.94465269 53.72133782 12.94967639 46.2317313 C12.96014038 30.82114461 12.97773947 15.41057443 13 0 C16.52599494 -0.04754517 20.0519063 -0.076188 23.578125 -0.1015625 C25.06723389 -0.12198608 25.06723389 -0.12198608 26.58642578 -0.14282227 C40.56097731 -0.21820366 52.95039505 5.1737196 63 15 C68.20754307 21.29985698 71.85727252 28.39063071 75.59301758 35.60717773 C78.96080065 42.059659 82.76124832 48.0788151 87 54 C87.72058594 55.00675781 88.44117188 56.01351562 89.18359375 57.05078125 C93.46854509 62.89524694 97.98502368 68.39266713 102.90234375 73.71484375 C104.72839201 75.7041142 106.4599008 77.738515 108.1875 79.8125 C142.85921498 119.33507419 198.07217423 143.20721332 250 147 C293.678282 148.93469415 347.21260941 141.72948129 383.21630859 114.31225586 C385 113 385 113 387 113 C387.24121773 121.57535425 386.49453358 130.03612622 385.6875 138.5625 C385.62063995 139.28421387 385.55377991 140.00592773 385.4848938 140.74951172 C384.40717543 152.37586508 383.14525011 163.97169676 381.66796875 175.5546875 C381.24704921 178.87036199 380.88078828 182.17633841 380.61328125 185.5078125 C378.9617278 205.13606644 371.66645251 223.47884826 363 241 C362.60941406 241.7935791 362.21882813 242.5871582 361.81640625 243.40478516 C355.66351031 255.77866236 348.56846599 267.44799638 341 279 C340.55624023 279.68078613 340.11248047 280.36157227 339.65527344 281.06298828 C326.52498425 301.166566 312.06907018 320.31295697 297 339 C296.44860352 339.68497559 295.89720703 340.36995117 295.32910156 341.07568359 C288.45622189 349.59933904 281.50433446 358.04820123 274.39013672 366.37158203 C272.93465989 368.07653996 271.48473947 369.7861233 270.03515625 371.49609375 C264.30558207 378.23785576 258.4565069 384.84077548 252.44921875 391.3359375 C250.43126221 393.53090777 248.45196555 395.7466621 246.5 398 C243.49172777 401.46716122 240.41185698 404.86442272 237.3125 408.25 C236.8484375 408.75789063 236.384375 409.26578125 235.90625 409.7890625 C234.6115031 411.19947843 233.30600118 412.59999873 232 414 C231.1028125 414.96969727 231.1028125 414.96969727 230.1875 415.95898438 C227.76091292 418.22307679 225.3289714 419.74314415 222.44921875 421.390625 C221.36616455 422.01356445 220.28311035 422.63650391 219.16723633 423.27832031 C218.01892334 423.92897461 216.87061035 424.57962891 215.6875 425.25 C214.49426313 425.93045081 213.30114851 426.61111603 212.1081543 427.29199219 C208.7455527 429.20677464 205.37429173 431.1058848 202 433 C201.2359082 433.42925781 200.47181641 433.85851563 199.68457031 434.30078125 C195.50496648 436.6310216 191.27411552 438.84933041 187 441 C186.23913086 441.38510742 185.47826172 441.77021484 184.69433594 442.16699219 C158.04898605 455.54657953 130.19670205 466.38163689 102 476 C100.92476074 476.36851074 99.84952148 476.73702148 98.74169922 477.11669922 C82.45951363 482.67930523 66.11417102 487.74058027 49.45605469 492.04663086 C45.04240344 493.18863395 40.64478074 494.37233724 36.2578125 495.61328125 C35.2886792 495.885354 34.3195459 496.15742676 33.32104492 496.43774414 C31.45731384 496.96273214 29.5953462 497.49403969 27.7355957 498.03295898 C19.61713131 500.3080091 11.88247972 502.15980504 3.6875 499.375 C-3.26306107 497.17487716 -10.25862197 495.46503536 -17.36450195 493.83935547 C-23.32475838 492.45668978 -29.15572049 490.80730939 -35 489 C-36.83444101 488.44727104 -38.66908504 487.89521553 -40.50390625 487.34375 C-47.34846608 485.26905501 -54.17636382 483.14240681 -61 481 C-62.25329102 480.608125 -63.50658203 480.21625 -64.79785156 479.8125 C-108.3175487 466.13644001 -151.65495879 448.41268614 -190.58447266 424.47802734 C-192.78525252 423.13140097 -195.0007065 421.81742066 -197.23046875 420.51953125 C-217.54370571 408.66821577 -236.25971642 394.39816749 -254 379 C-254.7115625 378.38898438 -255.423125 377.77796875 -256.15625 377.1484375 C-268.47238926 366.4980056 -280.46018023 355.43437415 -291 343 C-291.80953125 342.06800781 -292.6190625 341.13601563 -293.453125 340.17578125 C-311.2071366 319.64215014 -326.42527063 297.05282537 -339 273 C-339.46470703 272.12359863 -339.92941406 271.24719727 -340.40820312 270.34423828 C-365.844635 222.14404311 -378.8973719 170.35464595 -388 117 C-388.11722412 116.31597107 -388.23444824 115.63194214 -388.35522461 114.92718506 C-389.37631559 108.90441018 -390.28444378 103.11554135 -390 97 C-381.20845436 98.79037556 -374.75147377 101.42319292 -367.59399414 106.87036133 C-344.65555957 124.2321503 -317.22303192 135.32941279 -289.32543945 141.46923828 C-287.23605867 141.94612162 -285.17455997 142.48217303 -283.10546875 143.0390625 C-251.4727986 151.00054353 -216.23001494 148.40651898 -185 140 C-184.19908936 139.79068848 -183.39817871 139.58137695 -182.57299805 139.36572266 C-146.04189884 129.66993008 -114.15480581 111.07663716 -87 85 C-86.48550293 84.51273438 -85.97100586 84.02546875 -85.44091797 83.5234375 C-69.32803432 68.22361272 -56.71585158 50.07891036 -46.3125 30.5 C-38.36155902 15.63753058 -28.65641139 6.45318179 -12.625 0.8125 C-8.32113239 -0.15215998 -4.38082738 -0.14657891 0 0 Z " fill="#FEC1AC" transform="translate(768,889)"/>
<path d="M0 0 C5.25739529 4.39485388 10.16979934 9.01703956 15 13.875 C15.67289063 14.54402344 16.34578125 15.21304687 17.0390625 15.90234375 C21.00145602 19.87238667 24.77884453 23.94549893 28.42041016 28.2121582 C30.00017294 30.00019574 31.65439108 31.66056808 33.375 33.3125 C37.11984761 36.99062426 40.33508145 41.0344287 43.62109375 45.12109375 C45.95377216 47.94405597 48.38247205 50.63036612 50.875 53.3125 C56.03720624 58.9418384 60.75013256 64.85510326 65.39404297 70.90966797 C67.15169976 73.19745414 68.92175133 75.47539035 70.69140625 77.75390625 C84.40487191 95.49225285 97.29363412 113.68584017 108.76611328 132.95605469 C110.33444962 135.55401904 111.96644995 138.10803941 113.60229492 140.66381836 C149.35141348 196.75034147 175.78799249 260.58175806 192 325 C192.30260742 326.19705566 192.60521484 327.39411133 192.91699219 328.62744141 C201.35555037 362.23800858 207.43108829 396.06862507 210.57348633 430.58740234 C210.84297954 433.50282521 211.16911446 436.40317373 211.54174805 439.30712891 C213.76060516 457.56723966 213.26313511 475.98585886 213.19561768 494.34655762 C213.18480108 498.04876056 213.18514965 501.75092615 213.18575573 505.45314217 C213.18548061 509.08081051 213.17994575 512.70845613 213.17275429 516.33611679 C213.1696297 518.03972071 213.16761525 519.74332713 213.16686058 521.44693375 C213.15282425 536.55496329 212.77422847 551.68877554 211.08984375 566.71484375 C211.00224289 567.52267303 210.91464203 568.33050232 210.8243866 569.16281128 C210.5380083 571.75552429 210.23986829 574.34660528 209.9375 576.9375 C209.77951935 578.30205826 209.77951935 578.30205826 209.61834717 579.69418335 C201.0844634 652.39706339 180.86292091 723.62126797 150 790 C149.1661377 791.7953418 149.1661377 791.7953418 148.31542969 793.62695312 C141.0290128 809.25236985 133.22545182 824.4909843 124.52294922 839.38476562 C123.04110937 841.92940629 121.58158967 844.48549878 120.12890625 847.046875 C101.6572163 879.51778519 79.89028232 910.52622173 55.61328125 938.91796875 C53.20918687 941.73635029 50.88232006 944.61171953 48.5625 947.5 C44.69609833 952.2549105 40.61471132 956.76661645 36.42407227 961.234375 C33.81373809 964.01873145 31.26549208 966.83843992 28.77563477 969.73144531 C25.19993462 973.82520634 21.44614236 977.69886647 17.59765625 981.53515625 C16.91626083 982.21750839 16.23486542 982.89986053 15.53282166 983.60289001 C14.10294259 985.03344437 12.67182089 986.46275767 11.23950195 987.89086914 C9.06802289 990.05699074 6.90193675 992.22840174 4.73632812 994.40039062 C3.33625798 995.79979987 1.93587762 997.19889884 0.53515625 998.59765625 C-0.41991066 999.55575951 -0.41991066 999.55575951 -1.39427185 1000.53321838 C-5.21814702 1004.33757269 -9.1551172 1007.95816238 -13.24139404 1011.47950745 C-15.64685906 1013.55927502 -17.97688859 1015.71737453 -20.3125 1017.875 C-25.71470141 1022.79618347 -31.31229898 1027.41501653 -37 1032 C-38.23005016 1033.00934094 -39.4591621 1034.01982598 -40.6875 1035.03125 C-108.37062227 1090.64605923 -186.86583159 1132.38664575 -284.48291016 1162.93066406 C-287.44566834 1163.83146101 -290.40127074 1164.7513728 -293.35546875 1165.6796875 C-310.89749556 1171.07286152 -329.00861839 1174.47862567 -347 1178 C-347.73923706 1178.14499939 -348.47847412 1178.28999878 -349.2401123 1178.43939209 C-368.063185 1182.10991784 -386.9366574 1184.73259328 -406 1186.8125 C-407.44076904 1186.97061661 -407.44076904 1186.97061661 -408.91064453 1187.13192749 C-431.50527415 1189.58157065 -453.86998611 1190.14240887 -476.58190918 1190.06866455 C-480.13598014 1190.05825928 -483.69005869 1190.05383087 -487.24414062 1190.04882812 C-494.16277841 1190.03824438 -501.08138702 1190.02127854 -508 1190 C-508 1189.34 -508 1188.68 -508 1188 C-507.28908203 1187.96036133 -506.57816406 1187.92072266 -505.84570312 1187.87988281 C-491.21040892 1187.0357183 -476.671429 1185.87667062 -462.125 1184.0625 C-460.83916016 1183.90491211 -459.55332031 1183.74732422 -458.22851562 1183.58496094 C-450.61580607 1182.60438735 -443.1323807 1181.29083549 -435.6171875 1179.73413086 C-431.17657372 1178.83288048 -426.71931867 1178.07177489 -422.25219727 1177.31542969 C-396.59955003 1172.93953435 -371.7070943 1166.7301985 -346.9798584 1158.64324951 C-344.9294528 1157.97707944 -342.87595169 1157.32137315 -340.82128906 1156.66845703 C-289.64472241 1140.39695929 -241.11470296 1118.57571114 -195 1091 C-194.1951416 1090.52353027 -193.3902832 1090.04706055 -192.56103516 1089.55615234 C-179.66443506 1081.91932054 -167.29895009 1073.56028585 -155 1065 C-154.3404834 1064.54270508 -153.6809668 1064.08541016 -153.00146484 1063.61425781 C-138.11301803 1053.26171774 -123.55032149 1042.30489692 -109.8359375 1030.4375 C-107.1005756 1028.08644514 -104.31316038 1025.81947681 -101.5 1023.5625 C-96.7450895 1019.69609833 -92.23338355 1015.61471132 -87.765625 1011.42407227 C-84.97663019 1008.80938963 -82.15209165 1006.2566852 -79.25488281 1003.76196289 C-75.24352094 1000.25829246 -71.44243832 996.58762608 -67.68359375 992.81640625 C-67.02343765 992.15720688 -66.36328156 991.49800751 -65.68312073 990.8188324 C-64.29964494 989.43603165 -62.91740917 988.05198924 -61.53637695 986.66674805 C-59.44268331 984.56769657 -57.34370126 982.4740406 -55.24414062 980.38085938 C-53.89030429 979.02636214 -52.53677825 977.67155469 -51.18359375 976.31640625 C-50.56673203 975.70156876 -49.9498703 975.08673126 -49.3143158 974.45326233 C-45.56384443 970.68289827 -42.0008955 966.79415789 -38.52818298 962.76629639 C-36.4452478 960.35880924 -34.28507345 958.02576133 -32.125 955.6875 C-27.20255977 950.28845437 -22.58449118 944.68606503 -18 939 C-16.52137533 937.20788601 -15.04220512 935.41622199 -13.5625 933.625 C-4.47463858 922.4966861 4.01502174 910.96957592 12.36523438 899.28320312 C13.93944612 897.08457286 15.52358365 894.89341115 17.109375 892.703125 C23.80597738 883.40073174 29.91570924 873.84601434 35.79199219 864.00732422 C37.44974916 861.25266015 39.16497471 858.53494612 40.875 855.8125 C57.74743643 828.33062078 72.32243003 799.62934391 85 770 C85.87095447 767.9986373 86.7420447 765.99733367 87.61328125 763.99609375 C93.77387046 749.68785823 98.9450026 735.1068288 103.87890625 720.33544922 C104.87796291 717.36308161 105.90062144 714.40074008 106.9375 711.44140625 C111.4057753 698.58441488 114.87403272 685.53723831 118.16357422 672.33398438 C118.95713464 669.17086087 119.77312505 666.01454703 120.59765625 662.859375 C129.67222244 627.89357819 134.77295526 591.95193356 138 556 C138.10441406 554.8435498 138.20882812 553.68709961 138.31640625 552.49560547 C141.00162013 521.5009294 140.32919924 490.72147974 138.6875 459.6875 C138.59935532 457.9713298 138.59935532 457.9713298 138.50942993 456.2204895 C137.33386437 433.80861509 134.80769543 411.74646617 130.94921875 389.640625 C130.3624441 386.23972702 129.82666895 382.84579326 129.39453125 379.421875 C126.28430581 355.06600661 120.18895096 330.54857886 112.6796875 307.19287109 C111.964788 304.88639576 111.31843415 302.56907592 110.6875 300.23828125 C104.0772106 275.84299508 95.12997177 252.13773545 85 229 C84.49710449 227.84757813 83.99420898 226.69515625 83.47607422 225.5078125 C73.27503173 202.18745264 62.15722212 179.58338616 49.44677734 157.51757812 C48.16869362 155.29354853 46.90262033 153.06350428 45.64453125 150.828125 C42.15198639 144.63389283 38.53061972 138.58680633 34.54296875 132.6953125 C32.57566652 129.25875924 31.32188265 125.7226335 30 122 C23.71157407 104.98232426 16.92872939 90.03013118 4 77 C3.13375 76.0925 2.2675 75.185 1.375 74.25 C-3.25177248 69.86674186 -7.7236214 66.06129304 -13.23828125 62.80859375 C-14.57886597 62.01473267 -14.57886597 62.01473267 -15.9465332 61.20483398 C-16.62417725 60.80723877 -17.30182129 60.40964355 -18 60 C-17.58488159 58.78606567 -17.58488159 58.78606567 -17.16137695 57.54760742 C-12.12900498 42.78144458 -7.17492903 28.07014345 -3.47167969 12.90234375 C-2.3997752 8.57921756 -1.18242001 4.29388297 0 0 Z " fill="#CA8E00" transform="translate(1259,335)"/>
<path d="M0 0 C0.33 0 0.66 0 1 0 C1.68519632 7.75583921 2.06019928 15.48674424 2.27441406 23.26757812 C3.1551649 53.76036934 6.81690061 83.87849296 10.6953125 114.109375 C10.81188705 115.02041992 10.92846161 115.93146484 11.04856873 116.87011719 C11.1590303 117.7221875 11.26949188 118.57425781 11.38330078 119.45214844 C11.48523743 120.24254013 11.58717407 121.03293182 11.69219971 121.84727478 C11.95845341 123.70942717 12.31107585 125.55884558 12.67919922 127.40356445 C13.17852948 131.44494748 11.05417237 134.12535511 9 137.4375 C-24.22978202 194.26445839 -46.26776932 260.52679042 -58.40600586 324.9152832 C-59.07034107 328.36529363 -59.78099804 331.80464221 -60.48828125 335.24609375 C-63.1617671 348.60336411 -64.93692911 362.09520853 -66.68566895 375.59869385 C-66.98719583 377.9021836 -67.30047719 380.20379181 -67.61621094 382.50537109 C-76.20485464 446.19070282 -73.0864376 513.87151284 -62 577 C-61.80293457 578.16499023 -61.60586914 579.32998047 -61.40283203 580.53027344 C-58.40627738 598.2201756 -54.41614822 615.61402844 -50 633 C-49.79487793 633.80953125 -49.58975586 634.6190625 -49.37841797 635.453125 C-45.11254317 652.16081233 -39.95303138 668.56580801 -34.375 684.875 C-34.07075104 685.76641693 -33.76650208 686.65783386 -33.45303345 687.57626343 C-28.1850304 702.9664157 -22.48192373 718.07404278 -16 733 C-15.62069336 733.87736816 -15.24138672 734.75473633 -14.85058594 735.65869141 C-12.31882991 741.47949965 -9.68592742 747.2489047 -7 753 C-6.55575684 753.95551758 -6.11151367 754.91103516 -5.65380859 755.89550781 C16.4578817 803.27445038 44.19449542 848.24740385 77 889 C77.76546143 889.95471191 77.76546143 889.95471191 78.54638672 890.92871094 C89.40432814 904.45739563 100.56815872 917.64301518 112.42285156 930.30957031 C114.05752183 932.06165343 115.68185151 933.82289151 117.3046875 935.5859375 C123.54195252 942.34445966 129.8841889 948.98410731 136.375 955.5 C137.01663086 956.14622314 137.65826172 956.79244629 138.31933594 957.45825195 C142.12788753 961.25451472 146.0554395 964.85567635 150.125 968.37011719 C152.744138 970.64685746 155.27307702 973.0096074 157.8125 975.375 C162.45557189 979.66430703 167.23441617 983.72678619 172.16015625 987.69140625 C174.7181879 989.77090653 177.23142794 991.89052282 179.73510742 994.03442383 C186.63744979 999.94000096 193.73582059 1005.54662365 201 1011 C202.00812744 1011.76304443 202.00812744 1011.76304443 203.03662109 1012.54150391 C234.37324294 1036.22262229 267.92052541 1057.22684792 303.09082031 1074.72460938 C304.10756836 1075.23958984 305.12431641 1075.75457031 306.171875 1076.28515625 C307.0803418 1076.73769775 307.98880859 1077.19023926 308.92480469 1077.65649414 C311 1079 311 1079 312 1082 C271.77182272 1070.77116513 232.43558872 1050.34737491 196.49267578 1029.44482422 C194.25243876 1028.14632053 192.0022914 1026.86814168 189.74609375 1025.59765625 C170.07748596 1014.41780659 151.28137502 1001.30232027 133 988 C132.34563965 987.52433594 131.6912793 987.04867187 131.01708984 986.55859375 C121.00532977 979.24540159 111.39729045 971.49975051 101.87890625 963.55859375 C99.33663866 961.44972729 96.7609669 959.38310555 94.1875 957.3125 C89.28815577 953.31409901 84.64500879 949.08192427 80.01953125 944.7734375 C77.85165897 942.75933433 75.6325091 940.81931982 73.38720703 938.89208984 C68.66458617 934.7648133 64.22186654 930.38370529 59.78515625 925.953125 C58.9299791 925.10127625 58.07480194 924.24942749 57.19371033 923.37176514 C55.39483998 921.57793088 53.59729874 919.7827629 51.80102539 917.98632812 C49.07914968 915.26663632 46.34937536 912.55504697 43.61914062 909.84375 C41.86148843 908.08903309 40.10431145 906.33384 38.34765625 904.578125 C37.1425515 903.38379852 37.1425515 903.38379852 35.9131012 902.16534424 C30.9700362 897.20263903 26.44620567 892.03518169 22.07957458 886.55780029 C19.96573499 883.9578553 17.76018269 881.47317089 15.5 879 C10.79626493 873.82426383 6.36921698 868.45971577 2 863 C1.59056152 862.49017578 1.18112305 861.98035156 0.75927734 861.45507812 C-2.53975901 857.3385257 -5.78397299 853.18167207 -9 849 C-9.49532227 848.35724121 -9.99064453 847.71448242 -10.50097656 847.05224609 C-27.48539305 824.8646671 -43.12850601 801.25246422 -57 777 C-57.52932129 776.08508789 -58.05864258 775.17017578 -58.60400391 774.22753906 C-79.15161232 738.64322038 -96.05548193 701.64711763 -110 663 C-110.35478424 662.01749268 -110.35478424 662.01749268 -110.71673584 661.01513672 C-116.68837162 644.43574695 -122.14866662 627.87782469 -126.29833984 610.73364258 C-127.10731915 607.58188849 -128.02270754 604.46915896 -128.94140625 601.34765625 C-131.1597158 593.65626584 -132.87213729 585.89364814 -134.5 578.0625 C-134.65029663 577.34688904 -134.80059326 576.63127808 -134.95544434 575.89398193 C-137.4243623 564.13021794 -139.66932481 552.34271688 -141.59130859 540.47607422 C-141.97223674 538.16820487 -142.38131331 535.86753187 -142.80078125 533.56640625 C-145.35761699 519.13589058 -146.44643774 504.51755115 -147.60302734 489.9206543 C-147.8898539 486.30291307 -148.20406269 482.68827629 -148.52587891 479.07348633 C-149.88935862 463.29665118 -150.32358274 447.64385354 -150.25 431.8125 C-150.24689819 430.61355103 -150.24379639 429.41460205 -150.24060059 428.17932129 C-150.14891046 397.85004194 -147.79147199 368.07083856 -144 338 C-143.87304749 336.9856488 -143.87304749 336.9856488 -143.74353027 335.95080566 C-141.90521382 321.28963163 -139.87920809 306.74881015 -136.54296875 292.34716797 C-135.95327646 289.79802151 -135.38193774 287.24515081 -134.8125 284.69140625 C-133.77258544 280.04459559 -132.70975689 275.40342431 -131.63671875 270.76416016 C-131.01065635 268.04626195 -130.39561835 265.32603054 -129.78125 262.60546875 C-127.44778487 252.39972291 -124.70193216 242.4411966 -121.4453125 232.4921875 C-120.13611124 228.48307703 -118.99744352 224.44073988 -117.875 220.375 C-103.67855461 170.78442795 -80.66957045 121.97725629 -54 78 C-53.4529541 77.09781738 -52.9059082 76.19563477 -52.34228516 75.26611328 C-38.61830212 52.75573556 -23.93649888 31.01546617 -7.71728516 10.22607422 C-5.48004959 7.32600116 -3.31093047 4.37769065 -1.15307617 1.41821289 C-0.77256104 0.95020264 -0.3920459 0.48219238 0 0 Z " fill="#CA8E00" transform="translate(240,404)"/>
<path d="M0 0 C5.52795661 0.00755713 11.05584164 0.0048 16.58379567 -0.00360441 C108.15267392 -0.1391672 199.92829552 3.94419515 306.23542225 19.21664095 C311.26207717 19.96269495 316.29104963 20.68560917 321.32427418 21.38604403 C322.54751393 21.55676424 323.77075367 21.72748446 325.03106129 21.90337801 C327.16956381 22.20085999 329.30834956 22.49632219 331.4475652 22.78863192 C350.29768153 25.43906304 369.01026087 29.09985887 387.72271168 32.56963778 C400.06770505 34.85843479 412.41219031 37.13430874 424.79302418 39.22198153 C426.1473631 39.45193567 426.1473631 39.45193567 427.52906239 39.68653536 C431.7320986 40.3997539 435.93625727 41.10290876 440.14434254 41.78570223 C460.20272129 45.12416089 487.45082183 50.88108365 500.91802418 67.06963778 C505.11398311 73.78317206 505.77401829 79.0755307 505.66021168 86.88213778 C505.65078541 87.88398104 505.64135914 88.8858243 505.63164723 89.91802645 C504.98830789 122.55404157 504.98830789 122.55404157 496.28521168 131.25713778 C494.7659313 131.32893742 493.24353686 131.34105785 491.72271168 131.31963778 C490.89642262 131.31061434 490.07013356 131.3015909 489.21880543 131.29229403 C488.58071949 131.28069246 487.94263356 131.2690909 487.28521168 131.25713778 C487.24653981 130.22266512 487.24653981 130.22266512 487.20708668 129.16729403 C486.54325013 118.16872936 482.67067525 109.00535549 474.36724293 101.53057528 C468.14463633 96.64396351 461.75775474 94.16788669 454.05474293 92.53057528 C453.36356373 92.38176912 452.67238453 92.23296297 451.96026051 92.07964754 C449.67424844 91.58975172 447.38613683 91.11062479 445.09771168 90.63213778 C443.46376169 90.28567027 441.82989308 89.93881877 440.19610035 89.59161043 C435.80653579 88.66171656 431.41468362 87.74310803 427.02202809 86.82793856 C424.27856257 86.25575101 421.53573387 85.68059271 418.79302418 85.10479403 C394.69395083 80.05189338 370.56734048 75.34248936 346.28521168 71.25713778 C345.10410817 71.05749422 343.92300465 70.85785067 342.70611012 70.65215731 C336.78479683 69.65290407 330.86147901 68.66670124 324.93584645 67.69341707 C318.31569482 66.60377804 311.69799516 65.5006556 305.08599293 64.36260653 C253.35302598 55.60867601 200.59613996 50.93931243 148.28521168 47.25713778 C147.59501942 47.20835482 146.90482716 47.15957186 146.19371998 47.10931063 C141.35013972 46.76896231 136.50562478 46.44524379 131.66021168 46.13213778 C130.5011028 46.05640535 129.34199391 45.98067293 128.14776051 45.90264559 C104.19971439 44.43708153 80.28114114 44.10315568 56.29803646 44.12281227 C52.11723204 44.1254062 47.93642943 44.12297886 43.75562489 44.12142611 C36.73219857 44.11962216 29.70878286 44.12196115 22.68535817 44.12676668 C14.68019344 44.13218231 6.67505431 44.13045906 -1.33010978 44.12494028 C-8.30953652 44.12032941 -15.28895578 44.11979733 -22.26838356 44.12237895 C-26.38950802 44.12390185 -30.51062067 44.12425087 -34.63174427 44.12084246 C-52.12018112 44.10838106 -69.59345929 44.25652879 -87.07636058 44.7200284 C-87.85917482 44.740608 -88.64198907 44.76118761 -89.44852495 44.78239083 C-104.43135585 45.18482688 -119.38213548 45.91409187 -134.33978832 46.88213778 C-135.63988842 46.96472841 -136.93998851 47.04731905 -138.27948558 47.13241243 C-183.04295958 49.99937807 -227.81008366 54.66558391 -272.22675121 60.90813875 C-274.93262151 61.28769342 -277.63911081 61.6626406 -280.34564769 62.03741121 C-307.58715291 65.82213429 -334.70358859 70.07243127 -361.71478832 75.25713778 C-362.53122814 75.41375887 -363.34766796 75.57037996 -364.18884838 75.73174715 C-383.25280794 79.39894607 -402.26226506 83.30123535 -421.21478832 87.50713778 C-421.94015789 87.66785769 -422.66552745 87.82857759 -423.41287792 87.9941678 C-431.09306727 89.70145098 -438.75625081 91.47636174 -446.39838207 93.34698153 C-447.66996166 93.65756502 -448.94154125 93.96814852 -450.25165355 94.28814363 C-460.6719807 97.20377835 -468.09482373 102.42336908 -473.52728832 111.81963778 C-477.04700081 118.36654326 -478.0595052 124.30974122 -478.33978832 131.63213778 C-478.37846019 132.46358309 -478.41713207 133.2950284 -478.45697582 134.15166903 C-478.55053077 136.18648933 -478.63371544 138.22178193 -478.71478832 140.25713778 C-482.54388326 139.55816794 -484.13830704 138.08612672 -486.54584301 134.99151278 C-494.59532585 123.04842043 -498.33271816 105.36403166 -496.71478832 91.25713778 C-494.35617294 81.98258239 -488.76415848 73.63513935 -481.71478832 67.25713778 C-481.11795238 66.7028409 -480.52111644 66.14854403 -479.90619457 65.57745028 C-459.88174929 47.3876033 -430.92169349 42.44572912 -405.0031184 38.72491121 C-398.81031126 37.82510617 -392.71338983 36.65972898 -386.59760082 35.34698153 C-377.25265445 33.34181659 -367.8807414 31.58140872 -358.46478832 29.94463778 C-357.62297008 29.79784578 -356.78115184 29.65105379 -355.91382396 29.49981356 C-333.90833282 25.67764887 -311.8309822 22.36810912 -289.71478832 19.25713778 C-288.69227977 19.11276278 -287.66977123 18.96838778 -286.61627758 18.81963778 C-235.42739284 11.61293774 -183.51073474 5.17627759 -131.80096996 3.44317293 C-128.62918278 3.29001997 -128.62918278 3.29001997 -125.16269481 2.77840853 C-120.27138414 2.15787416 -115.38617273 1.93085627 -110.46210277 1.73077059 C-109.45250436 1.68837503 -108.44290596 1.64597948 -107.40271366 1.60229921 C-104.02389229 1.464812 -100.64485007 1.33594946 -97.26556957 1.21026278 C-95.48223437 1.14370863 -95.48223437 1.14370863 -93.6628722 1.07580996 C-62.44732347 -0.05319318 -31.23194579 -0.0476697 0 0 Z " fill="#0BBEDD" transform="translate(776.7147883176804,592.7428622245789)"/>
<path d="M0 0 C8.79154564 1.79037556 15.24852623 4.42319292 22.40600586 9.87036133 C42.68962892 25.22275959 66.93349823 35.26433872 91 43 C91.84183318 46.54723368 92.14253974 49.97217735 92.27764893 53.6111145 C92.69595512 64.83868383 94.16935469 75.86607639 95.79150391 86.97460938 C96.24617854 90.0987422 96.68445613 93.22486388 97.12109375 96.3515625 C103.25328253 139.45018726 115.69708708 180.94255884 135 220 C135.39864258 220.81500977 135.79728516 221.63001953 136.20800781 222.46972656 C151.23224262 252.93033229 171.16201279 280.00893655 194 305 C194.9194139 306.01289099 195.83867779 307.02591816 196.7578125 308.0390625 C205.20081488 317.32506819 213.93348982 325.82581378 223.48046875 333.96875 C224.10042725 334.49831299 224.72038574 335.02787598 225.35913086 335.57348633 C226.59667392 336.62983199 227.83571293 337.68442821 229.07641602 338.73706055 C232.17883644 341.38200908 235.16673522 344.06153974 238 347 C230.69717707 344.82645126 224.34416235 341.74483991 217.6875 338.0625 C216.11415894 337.19915039 216.11415894 337.19915039 214.5090332 336.31835938 C186.42664165 320.8041178 160.24055492 303.04025694 136 282 C135.2884375 281.38898438 134.576875 280.77796875 133.84375 280.1484375 C121.52761074 269.4980056 109.53981977 258.43437415 99 246 C98.19046875 245.06800781 97.3809375 244.13601563 96.546875 243.17578125 C78.7928634 222.64215014 63.57472937 200.05282537 51 176 C50.53529297 175.12359863 50.07058594 174.24719727 49.59179688 173.34423828 C24.155365 125.14404311 11.1026281 73.35464595 2 20 C1.88277588 19.31597107 1.76555176 18.63194214 1.64477539 17.92718506 C0.62368441 11.90441018 -0.28444378 6.11554135 0 0 Z " fill="#CB9A89" transform="translate(378,986)"/>
<path d="M0 0 C2.296875 1.828125 2.296875 1.828125 4.75 4.25 C12.03072763 11.11693797 19.96506017 17.04834719 28 23 C29.30904297 23.97066406 29.30904297 23.97066406 30.64453125 24.9609375 C33.06296159 26.69746367 35.51568137 28.35876029 38 30 C38.63534668 30.42071777 39.27069336 30.84143555 39.92529297 31.27490234 C68.45843408 50.05026274 98.68197541 63.22953101 132 71 C132.7616748 71.17998535 133.52334961 71.3599707 134.30810547 71.54541016 C138.84297599 72.58762537 143.3904041 73.38306189 148 74 C148.74459473 74.10151367 149.48918945 74.20302734 150.25634766 74.30761719 C179.33432407 78.02818975 210.05831083 77.42038912 239 73 C240.12647949 72.82839355 241.25295898 72.65678711 242.41357422 72.47998047 C258.66907801 69.91114715 274.36671038 66.12382937 290 61 C291.19109375 60.61070312 292.3821875 60.22140625 293.609375 59.8203125 C323.29373429 49.986605 352.28518243 37.37923272 378.62890625 20.3984375 C381 19 381 19 383 19 C379.8300938 35.86973068 369.53619283 49.90302388 359 63 C358.56494141 63.55075195 358.12988281 64.10150391 357.68164062 64.66894531 C346.41250263 78.88203641 333.30770017 91.87178875 319 103 C318.34 103.66 317.68 104.32 317 105 C315.05072021 105.2561264 315.05072021 105.2561264 312.61621094 105.26501465 C311.69284943 105.27328781 310.76948792 105.28156097 309.81814575 105.29008484 C308.8005014 105.28910294 307.78285706 105.28812103 306.734375 105.28710938 C305.66347626 105.29394241 304.59257751 105.30077545 303.48922729 105.30781555 C301.14740106 105.32145448 298.80554459 105.33047489 296.46368408 105.33552551 C292.70273841 105.34385467 288.94203103 105.3644219 285.18115234 105.38806152 C277.79773906 105.4323627 270.41432488 105.46379307 263.03083801 105.49217987 C216.0970827 105.67290725 169.23862367 106.23203074 122.41308594 109.69506836 C119.03644485 109.9440292 115.65899806 110.17868971 112.28125 110.41210938 C97.24253567 111.47583621 82.26889823 112.94967235 67.28747559 114.63137817 C64.18533905 114.97921809 61.08261403 115.32098826 57.97949219 115.65991211 C52.42314366 116.26716493 46.86769204 116.88226593 41.3125 117.5 C40.35727448 117.6060556 39.40204895 117.71211121 38.4178772 117.82138062 C23.60185082 119.46774283 8.79473767 121.17110278 -6 123 C-5.85779528 119.60400495 -5.71052536 116.20824592 -5.5625 112.8125 C-5.52318359 111.87212891 -5.48386719 110.93175781 -5.44335938 109.96289062 C-5.222618 104.95375952 -4.92345013 99.96687135 -4.49291992 94.97119141 C-3.95874968 88.10134681 -3.82176204 81.26733812 -3.796875 74.37890625 C-3.79117493 73.11771469 -3.78547485 71.85652313 -3.77960205 70.55711365 C-3.77021684 67.90237857 -3.76328731 65.24775464 -3.75976562 62.59301758 C-3.7532477 58.60416546 -3.71902953 54.61568496 -3.6875 50.62695312 C-3.63275389 36.97893973 -4.13134463 23.80176874 -6.35253906 10.32397461 C-6.92237749 6.84740595 -7.13605057 3.53194446 -7 0 C-4.21959313 -1.39020344 -2.94751975 -0.91355875 0 0 Z " fill="#FDC0AB" transform="translate(501,483)"/>
<path d="M0 0 C0.99 0.66 1.98 1.32 3 2 C3.53662109 4.7644043 3.53662109 4.7644043 3.7734375 8.32421875 C3.87425932 9.66089544 3.97517511 10.99756504 4.07617188 12.33422852 C4.12443115 13.04282013 4.17269043 13.75141174 4.22241211 14.48147583 C5.16541988 28.11491633 6.8611614 41.45587092 9.15917969 54.92651367 C10.52101412 62.93527448 11.67774501 70.93197853 12.625 79 C14.39527323 93.63425867 17.53934223 107.21695991 21.81079102 121.31323242 C24.25139465 129.37761823 26.48913061 137.4751455 28.625 145.625 C36.70513743 176.62364715 36.70513743 176.62364715 54.68066406 202.55761719 C60.88629186 208.64010459 61.59104565 214.8536672 62.625 223.25 C62.81618136 224.62286188 63.01073646 225.99525777 63.20849609 227.3671875 C63.51243574 229.47900111 63.81425813 231.59087869 64.10562134 233.70446777 C65.08998392 240.83701846 66.33540841 247.91666816 67.625 255 C67.83294189 256.15790039 68.04088379 257.31580078 68.25512695 258.50878906 C69.57229126 265.79946006 70.97303006 273.06701375 72.51953125 280.3125 C73 283 73 283 73 287 C64.99151053 285.01888497 57.44253185 282.37242739 49.8125 279.25 C48.72187256 278.8075293 47.63124512 278.36505859 46.50756836 277.90917969 C43.33423254 276.61593105 40.16600881 275.31107093 37 274 C36.16017578 273.65324219 35.32035156 273.30648438 34.45507812 272.94921875 C26.26051873 269.54241305 18.43626721 265.89300854 11 261 C10.36835938 260.62617187 9.73671875 260.25234375 9.0859375 259.8671875 C0.5728344 254.50430757 -4.08226733 244.58917875 -8.25 235.75 C-8.71325684 234.77039307 -9.17651367 233.79078613 -9.65380859 232.78149414 C-21.64442244 206.80048279 -29.78694569 179.1094249 -37.07348633 151.50317383 C-37.86395767 148.51437983 -38.67444079 145.53217867 -39.4921875 142.55078125 C-49.82082522 103.95487146 -64.79626475 45.99332867 -45.83984375 8.71875 C-35.55416324 -9.00833924 -16.89849298 -4.79315432 0 0 Z " fill="#FDC0AB" transform="translate(298,766)"/>
<path d="M0 0 C3.79642666 2.94894847 5.98651811 6.42876376 8.15234375 10.671875 C8.73628906 11.79916016 8.73628906 11.79916016 9.33203125 12.94921875 C20.63596306 37.74360933 14.12400994 71.5475314 10.15234375 97.671875 C10.0028125 98.69265137 9.85328125 99.71342773 9.69921875 100.76513672 C5.82009137 126.88190059 -0.7598959 152.67263348 -8.91479492 177.76049805 C-9.90764592 180.85909742 -10.84920177 183.97088383 -11.7890625 187.0859375 C-31.95344924 252.80310794 -31.95344924 252.80310794 -55.33203125 265.40234375 C-72.72855114 274.32741102 -92.49230683 284.11446888 -111.84765625 287.671875 C-109.94696895 274.8720704 -107.73112753 262.12769579 -105.52392578 249.37792969 C-104.17008867 241.53856062 -102.82472653 233.70439538 -101.67578125 225.83203125 C-101.50997559 224.72512939 -101.34416992 223.61822754 -101.17333984 222.4777832 C-100.88294612 220.50873759 -100.60857181 218.53722947 -100.35400391 216.56323242 C-99.52238657 211.01894296 -98.36670677 208.33763048 -93.84765625 204.671875 C-76.00442737 187.11511998 -69.79537829 160.50746494 -63.796875 137.125 C-62.06494325 130.39767609 -60.11164598 123.7564662 -58.09765625 117.109375 C-53.34764818 101.11622856 -50.76527732 85.16206739 -48.99121094 68.59277344 C-48.18711937 61.19122979 -47.1072746 53.88338096 -45.84765625 46.546875 C-43.31905372 31.6810612 -42.10013158 16.68859246 -40.84765625 1.671875 C-38.64055642 1.02183875 -36.43191733 0.37702755 -34.22265625 -0.265625 C-32.99289062 -0.62527344 -31.763125 -0.98492188 -30.49609375 -1.35546875 C-20.33032556 -4.06561466 -9.44446425 -5.44931811 0 0 Z " fill="#FDC0AC" transform="translate(1302.84765625,765.328125)"/>
<path d="M0 0 C0.99 0.495 0.99 0.495 2 1 C1.20078125 1.71542969 0.4015625 2.43085938 -0.421875 3.16796875 C-12.87664493 14.41990584 -23.56087899 26.32148991 -33.44726562 39.88134766 C-36.18167631 43.61235645 -38.96923779 47.30348975 -41.75 51 C-42.76584907 52.35399858 -43.78149567 53.70814911 -44.796875 55.0625 C-45.52390625 56.031875 -46.2509375 57.00125 -47 58 C-46.41879395 57.82476807 -45.83758789 57.64953613 -45.23876953 57.46899414 C-42.49337368 56.64310602 -39.74666745 55.82164879 -37 55 C-36.08573242 54.72397949 -35.17146484 54.44795898 -34.22949219 54.16357422 C0.39523603 43.82104622 36.21236908 36.85469871 72 32 C73.58187013 31.78288957 75.16373854 31.5657666 76.74560547 31.34863281 C136.11680433 23.24460184 197.28339334 19.01523357 257 26 C253.87281459 28.57485989 250.78440132 30.06405934 247.03125 31.56640625 C245.23578735 32.28727417 245.23578735 32.28727417 243.40405273 33.02270508 C242.10293164 33.53655236 240.80157452 34.04980234 239.5 34.5625 C238.83783478 34.82533783 238.17566956 35.08817566 237.49343872 35.35897827 C223.45389742 40.92862829 209.27304867 46.05915956 195 51 C194.04802734 51.33370605 193.09605469 51.66741211 192.11523438 52.01123047 C180.28211302 56.15282294 168.37812558 59.59805088 156.22265625 62.6640625 C152.11634164 63.70106234 148.05623866 64.84221159 144 66.0625 C95.17687387 80.04470983 43.86609298 84.34822017 -6.6875 84.375 C-7.76068041 84.37666735 -7.76068041 84.37666735 -8.85554123 84.37836838 C-32.52599314 84.41098771 -55.96593026 83.35633064 -79.4375 80.125 C-81.31236084 79.87218262 -81.31236084 79.87218262 -83.22509766 79.61425781 C-92.94974504 78.25464178 -102.48675321 76.42342872 -112 74 C-108.20706845 70.01163113 -104.17359356 66.70305065 -99.75 63.4375 C-99.04746094 62.91575195 -98.34492188 62.39400391 -97.62109375 61.85644531 C-89.84019252 56.10369196 -81.97057382 50.48678021 -74 45 C-73.12375977 44.39671875 -72.24751953 43.7934375 -71.34472656 43.171875 C-51.05584168 29.27402417 -30.05676573 16.70681044 -8.4765625 4.91796875 C-6.33083329 3.73420129 -4.21276779 2.49638706 -2.1484375 1.17578125 C-1.43945312 0.78777344 -0.73046875 0.39976562 0 0 Z " fill="#FCB100" transform="translate(463,220)"/>
<path d="M0 0 C0.66 0 1.32 0 2 0 C2.05896868 3.14575207 2.09391603 6.2913586 2.125 9.4375 C2.14175781 10.31599609 2.15851563 11.19449219 2.17578125 12.09960938 C2.24329442 21.24764336 0.57976348 28.75762549 -3.625 36.875 C-3.97763916 37.56480957 -4.33027832 38.25461914 -4.69360352 38.96533203 C-23.39587309 74.64210211 -62.43431938 96.90279844 -99.64941406 108.85058594 C-105.72740973 110.7155004 -111.85165784 112.3848206 -118 114 C-118.72703125 114.19577637 -119.4540625 114.39155273 -120.203125 114.59326172 C-144.86321917 121.22761506 -169.27279005 123.41956734 -194.75 123.375 C-196.50479675 123.37418427 -196.50479675 123.37418427 -198.29504395 123.37335205 C-216.50763126 123.33446419 -234.10018926 122.62409111 -252 119 C-253.07411133 118.78569336 -254.14822266 118.57138672 -255.25488281 118.35058594 C-276.20017523 114.03073728 -296.93067964 107.77913865 -316 98 C-316 97.67 -316 97.34 -316 97 C-315.33998993 96.99191315 -314.67997986 96.98382629 -313.99996948 96.97549438 C-272.77556499 96.65017242 -272.77556499 96.65017242 -231.63476562 94.3046875 C-228.21429278 94.01796329 -224.79319258 93.76075834 -221.3697052 93.51367188 C-192.27749173 91.41374195 -163.60241337 87.86325533 -135 82 C-134.00178223 81.79713379 -133.00356445 81.59426758 -131.97509766 81.38525391 C-118.17074401 78.50944192 -104.80894055 74.48999345 -91.4375 70.0625 C-90.68663116 69.81555389 -89.93576233 69.56860779 -89.16213989 69.31417847 C-56.81597133 58.61666077 -20.33680162 42.86637305 -4 11 C-2.47451656 7.38291887 -1.14370303 3.75465666 0 0 Z " fill="#020201" transform="translate(940,1066)"/>
<path d="M0 0 C3 2 3 2 3.43237305 3.97119141 C3.45855713 4.75671387 3.48474121 5.54223633 3.51171875 6.3515625 C3.54716797 7.20234375 3.58261719 8.053125 3.61914062 8.9296875 C3.65297852 10.26386719 3.65297852 10.26386719 3.6875 11.625 C3.72166016 12.5221875 3.75582031 13.419375 3.79101562 14.34375 C3.87362402 16.56237538 3.94272719 18.7805994 4 21 C3.31035156 21.08636719 2.62070312 21.17273438 1.91015625 21.26171875 C-8.75201887 22.855926 -15.20663426 26.49281595 -22.2734375 34.62109375 C-26.57787524 40.55186882 -27.52276106 45.10092759 -27.4375 52.25 C-27.42992676 53.16112549 -27.42235352 54.07225098 -27.41455078 55.01098633 C-26.96256563 74.59975872 -22.40499365 93.83583484 -17.77783203 112.78857422 C-17.0071474 115.9704906 -16.26344017 119.15757685 -15.52734375 122.34765625 C-12.18840992 136.72637932 -8.27942093 150.87467594 -4 165 C-3.54077148 166.52197998 -3.54077148 166.52197998 -3.07226562 168.07470703 C-1.34549796 173.79349365 0.39201779 179.50888711 2.14648438 185.21923828 C2.73883855 187.14913359 3.32849282 189.07985885 3.91601562 191.01123047 C9.77436772 210.20411136 15.94275163 229.35263935 23.375 248 C23.76703613 248.98838867 24.15907227 249.97677734 24.56298828 250.99511719 C27.78795598 258.91007407 31.34703823 266.50956241 37 273 C19.39104124 267.96886892 4.7842999 259.64430049 -4.41821289 243.51416016 C-5.75350381 240.95013774 -7.01710239 238.3648036 -8.25 235.75 C-8.71325684 234.77039307 -9.17651367 233.79078613 -9.65380859 232.78149414 C-21.64442244 206.80048279 -29.78694569 179.1094249 -37.07348633 151.50317383 C-37.86395767 148.51437983 -38.67444079 145.53217867 -39.4921875 142.55078125 C-49.82082522 103.95487146 -64.79626475 45.99332867 -45.83984375 8.71875 C-35.55416324 -9.00833924 -16.89849298 -4.79315432 0 0 Z " fill="#CA9A89" transform="translate(298,766)"/>
<path d="M0 0 C3.79642666 2.94894847 5.98651811 6.42876376 8.15234375 10.671875 C8.73628906 11.79916016 8.73628906 11.79916016 9.33203125 12.94921875 C20.63596306 37.74360933 14.12400994 71.5475314 10.15234375 97.671875 C10.0028125 98.69265137 9.85328125 99.71342773 9.69921875 100.76513672 C5.82009137 126.88190059 -0.7598959 152.67263348 -8.91479492 177.76049805 C-9.90764592 180.85909742 -10.84920177 183.97088383 -11.7890625 187.0859375 C-31.94236903 252.76699675 -31.94236903 252.76699675 -52.59765625 263.796875 C-53.51756348 264.30335571 -53.51756348 264.30335571 -54.45605469 264.82006836 C-64.89716939 270.4996511 -64.89716939 270.4996511 -68.84765625 271.671875 C-69.50765625 271.341875 -70.16765625 271.011875 -70.84765625 270.671875 C-70.34339111 269.77831299 -69.83912598 268.88475098 -69.31958008 267.96411133 C-64.17663075 258.69021569 -60.13045973 249.32359407 -56.53515625 239.359375 C-55.97921604 237.84174897 -55.42314215 236.3241719 -54.86694336 234.80664062 C-49.50666526 220.08184712 -44.67538796 205.19014592 -39.97558594 190.24365234 C-39.01433851 187.19970217 -38.03609239 184.16256184 -37.04296875 181.12890625 C-33.4484256 170.09950566 -30.4868521 158.94288562 -27.62841797 147.70239258 C-25.76596943 140.47332014 -23.81477805 133.26688679 -21.87548828 126.05810547 C-17.68504019 110.36689674 -14.07617527 94.68397349 -11.34765625 78.671875 C-11.21796448 77.93450104 -11.08827271 77.19712708 -10.95465088 76.43740845 C-7.05815351 55.25245667 -7.05815351 55.25245667 -13.84765625 35.671875 C-14.28207031 35.01703125 -14.71648437 34.3621875 -15.1640625 33.6875 C-21.61890103 25.08104863 -31.83983921 22.88290435 -41.84765625 20.671875 C-41.51765625 14.401875 -41.18765625 8.131875 -40.84765625 1.671875 C-11.81698384 -6.81822731 -11.81698384 -6.81822731 0 0 Z " fill="#CA9A89" transform="translate(1302.84765625,765.328125)"/>
<path d="M0 0 C-12.42200607 91.73811346 -39.25132561 183.70622644 -108.4453125 255.4453125 C-110.13544042 257.13544042 -111.65101131 258.91944649 -113.1875 260.75 C-118.00071896 266.31028177 -123.50507974 271.13284698 -129 276 C-129.5887793 276.52287598 -130.17755859 277.04575195 -130.78417969 277.58447266 C-147.54160497 292.41796339 -165.22621975 305.80506582 -184 318 C-184.66 317.67 -185.32 317.34 -186 317 C-185.50371094 316.5153125 -185.00742187 316.030625 -184.49609375 315.53125 C-180.46282607 311.55155513 -176.60925778 307.49340687 -172.9140625 303.19921875 C-170.64845431 300.59608118 -168.32696448 298.04841276 -166 295.5 C-159.12036341 287.94791773 -152.4685716 280.22258833 -145.8828125 272.4140625 C-144.02918968 270.21639132 -142.17020502 268.0235195 -140.3046875 265.8359375 C-117.56675726 239.14701664 -96.04787101 211.45445958 -77 182 C-76.44957031 181.15211914 -75.89914062 180.30423828 -75.33203125 179.43066406 C-56.7167974 150.59031661 -40.65827182 119.92020844 -36.9375 85.375 C-36.77394403 83.93568692 -36.60945788 82.49647928 -36.4440918 81.05737305 C-36.02834513 77.41162386 -35.62728075 73.76443516 -35.2310791 70.11651611 C-35.0075645 68.06928528 -34.77967789 66.02259998 -34.54980469 63.97607422 C-31.39357168 42.04420913 -31.39357168 42.04420913 -31.625 20.0625 C-31.66796875 17.40234375 -31.66796875 17.40234375 -31 15 C-27.71136887 11.92165434 -23.97330744 10.0650387 -20 8 C-18.8139111 7.1086067 -17.64370287 6.19516276 -16.5 5.25 C-11.98683694 1.92277759 -5.60740448 0 0 0 Z " fill="#101418" transform="translate(1185,986)"/>
<path d="M0 0 C0.99 0.495 0.99 0.495 2 1 C1.20078125 1.71542969 0.4015625 2.43085938 -0.421875 3.16796875 C-12.87664493 14.41990584 -23.56087899 26.32148991 -33.44726562 39.88134766 C-36.18167631 43.61235645 -38.96923779 47.30348975 -41.75 51 C-42.76584907 52.35399858 -43.78149567 53.70814911 -44.796875 55.0625 C-45.52390625 56.031875 -46.2509375 57.00125 -47 58 C-46.41879395 57.82476807 -45.83758789 57.64953613 -45.23876953 57.46899414 C-42.49337368 56.64310602 -39.74666745 55.82164879 -37 55 C-36.08573242 54.72397949 -35.17146484 54.44795898 -34.22949219 54.16357422 C-3.85331719 45.090104 27.45129532 38.75737733 58.75 33.8125 C59.41585114 33.70563873 60.08170227 33.59877747 60.76773071 33.48867798 C72.04911453 31.7012315 72.04911453 31.7012315 76 33 C75.40276123 33.33620361 74.80552246 33.67240723 74.19018555 34.01879883 C67.1202058 38.00094346 60.05859978 41.99772438 53 46 C52.14212891 46.48500977 51.28425781 46.97001953 50.40039062 47.46972656 C21.9717342 63.07830886 21.9717342 63.07830886 -3.74682617 82.6015625 C-6.83856634 84.52045812 -9.10638382 84.37226558 -12.73046875 84.36328125 C-13.38905884 84.36468613 -14.04764893 84.366091 -14.72619629 84.36753845 C-16.8804187 84.3661682 -19.03347509 84.34088423 -21.1875 84.3125 C-22.29902939 84.30410095 -22.29902939 84.30410095 -23.43301392 84.29553223 C-53.06869334 84.07056926 -83.23282556 81.3282233 -112 74 C-108.20706845 70.01163113 -104.17359356 66.70305065 -99.75 63.4375 C-99.04746094 62.91575195 -98.34492188 62.39400391 -97.62109375 61.85644531 C-89.84019252 56.10369196 -81.97057382 50.48678021 -74 45 C-73.12375977 44.39671875 -72.24751953 43.7934375 -71.34472656 43.171875 C-51.05584168 29.27402417 -30.05676573 16.70681044 -8.4765625 4.91796875 C-6.33083329 3.73420129 -4.21276779 2.49638706 -2.1484375 1.17578125 C-1.43945312 0.78777344 -0.73046875 0.39976562 0 0 Z " fill="#C88D00" transform="translate(463,220)"/>
<path d="M0 0 C1.22977454 3.68932363 0.61336056 6.44621171 -0.0390625 10.171875 C-0.2906382 11.69570199 -0.54158269 13.21963328 -0.79199219 14.74365234 C-0.92778687 15.55678894 -1.06358154 16.36992554 -1.20349121 17.20770264 C-6.51273391 49.2299856 -9.77959438 81.6218464 -12 114 C-23.7192622 112.65458621 -35.36515202 110.91472709 -47.01953125 109.09765625 C-48.67432495 108.84036743 -48.67432495 108.84036743 -50.36254883 108.57788086 C-52.93297457 108.16951803 -55.49919256 107.74892491 -58.06518555 107.31469727 C-72.37682509 104.92581171 -86.76538662 103.36991616 -101.1875 101.8125 C-103.70251929 101.53752369 -106.21749362 101.26213579 -108.73242188 100.98632812 C-114.82110548 100.31948316 -120.91032011 99.65768137 -127 99 C-125.4432992 95.8865984 -122.37649562 95.52788591 -119.25 94.4375 C-85.67347147 82.21151347 -55.27112955 65.09655457 -29.39257812 40.32519531 C-28.21933942 39.20872622 -27.02592134 38.11351834 -25.828125 37.0234375 C-14.72753821 26.61090361 -6.63106395 13.57417798 0 0 Z " fill="#FCC0AB" transform="translate(1133,499)"/>
<path d="M0 0 C2.296875 1.828125 2.296875 1.828125 4.75 4.25 C14.41632447 13.36695285 25.22337311 21.28341746 36.21484375 28.73046875 C38 30 38 30 40 32 C39.57058105 33.23395508 39.14116211 34.46791016 38.69873047 35.73925781 C36.78772303 41.47997172 35.29920924 47.30751039 33.8203125 53.171875 C33.37835037 54.9092392 33.37835037 54.9092392 32.92745972 56.68170166 C32.30569198 59.12870894 31.68553385 61.57612572 31.06689453 64.02392578 C30.13817059 67.69789797 29.20430638 71.37053208 28.26953125 75.04296875 C25.24888779 86.93782013 22.26945045 98.83842626 19.50296021 110.79534912 C18.10351562 116.79296875 18.10351562 116.79296875 17 119 C17.66 119.33 18.32 119.66 19 120 C10.75 120.99 2.5 121.98 -6 123 C-5.855625 119.638125 -5.71125 116.27625 -5.5625 112.8125 C-5.51939697 111.78229736 -5.47629395 110.75209473 -5.43188477 109.69067383 C-5.21417163 104.77256637 -4.9156293 99.87612194 -4.49291992 94.97119141 C-3.95874968 88.10134681 -3.82176204 81.26733812 -3.796875 74.37890625 C-3.79117493 73.11771469 -3.78547485 71.85652313 -3.77960205 70.55711365 C-3.77021684 67.90237857 -3.76328731 65.24775464 -3.75976562 62.59301758 C-3.7532477 58.60416546 -3.71902953 54.61568496 -3.6875 50.62695312 C-3.63275389 36.97893973 -4.13134463 23.80176874 -6.35253906 10.32397461 C-6.92237749 6.84740595 -7.13605057 3.53194446 -7 0 C-4.21959313 -1.39020344 -2.94751975 -0.91355875 0 0 Z " fill="#CA9988" transform="translate(501,483)"/>
<path d="M0 0 C2.42470937 1.64738906 3.75207362 3.00495971 4.47192383 5.89404297 C4.78625119 8.32544965 4.97246063 10.74055195 5.125 13.1875 C5.23763184 14.59660645 5.23763184 14.59660645 5.35253906 16.03417969 C5.65726309 19.90124237 5.91773275 23.77076366 6.17675781 27.64111328 C7.26887742 43.76970648 9.0946067 59.77020607 11.0625 75.8125 C11.19837524 76.92500122 11.33425049 78.03750244 11.47424316 79.18371582 C11.86594442 82.37944644 12.26199652 85.57459944 12.66015625 88.76953125 C12.77990311 89.74140884 12.89964996 90.71328644 13.02302551 91.71461487 C13.13667953 92.61550339 13.25033356 93.51639191 13.36743164 94.44458008 C13.46576797 95.23077225 13.56410431 96.01696442 13.66542053 96.82698059 C13.98938321 98.93104631 14.46877945 100.94014338 15 103 C15.59790339 107.77468561 15.68359973 110.95323792 13 115.0625 C8.81895862 117.76275589 6.91883328 117.78076719 2 117 C-1.77016642 113.32443932 -2.663309 110.20353024 -3.37890625 105.06640625 C-3.47615997 104.40093781 -3.5734137 103.73546936 -3.6736145 103.04983521 C-3.98549016 100.88927122 -4.27445227 98.72635837 -4.5625 96.5625 C-4.77387826 95.05621797 -4.98653479 93.55011479 -5.20043945 92.04418945 C-5.62238168 89.05629256 -6.03522702 86.06735997 -6.44042969 83.07714844 C-6.90189215 79.68466455 -7.39791703 76.29871849 -7.9140625 72.9140625 C-10.7931909 53.74208323 -12.09260988 34.37771529 -12.4375 15 C-12.47190186 13.94965576 -12.50630371 12.89931152 -12.54174805 11.81713867 C-12.58266135 4.67154189 -12.58266135 4.67154189 -9.6953125 1.34375 C-6.16135085 -0.41810914 -3.89944667 -0.56719224 0 0 Z " fill="#FAFAFA" transform="translate(356,744)"/>
<path d="M0 0 C4.39583314 1.1368534 5.711181 2.49854297 8.625 5.9375 C12.02679387 13.28705465 15.58509203 22.77044989 13.625 30.9375 C12.07644295 33.03430395 11.01817451 33.80791439 8.5390625 34.625 C4.54925215 35.16968401 2.3743919 35.37048199 -1.1875 33.3125 C-6.7031348 26.44181305 -8.80743913 14.57186788 -8.375 5.9375 C-6.76721156 1.57461778 -4.80981736 -0.08907069 0 0 Z " fill="#F9F9F9" transform="translate(369.375,878.0625)"/>
</svg>
